<svg xmlns="http://www.w3.org/2000/svg" xmlns:xlink="http://www.w3.org/1999/xlink" width="425.098" height="159.619" viewBox="0 0 425.098 159.619"><defs><clipPath id="a"><rect width="425.098" height="159.619" fill="none"></rect></clipPath></defs><g clip-path="url(#a)"><path d="M27.677,17.674l-1.166,3.437,2.946-2.148L32.4,21.111l-1.166-3.437,2.946-2.148H30.561L29.4,12.09l-1.166,3.437H24.486Zm66.523,0-1.166,3.437,2.946-2.148,2.946,2.148L97.76,17.674l2.946-2.148H97.085L95.919,12.09l-1.166,3.437H91.132Zm-8.9,7.548-1.166,3.437,2.946-2.148,2.946,2.148-1.166-3.437,2.946-2.148H88.186L87.02,19.638l-1.166,3.437H82.111Zm0-15.281-1.166,3.437,2.946-2.148,2.946,2.148L88.861,9.942l2.946-2.148H88.186L87.02,4.357,85.854,7.794H82.111ZM73.458,28.107l-1.166,3.437L75.238,29.4l2.946,2.148-1.166-3.437,2.946-2.148H76.342l-1.166-3.437L74.01,25.959H70.267ZM73.458,7l-1.166,3.437,2.946-2.148,2.946,2.148L77.017,7l2.946-2.148H76.342L75.176,1.411,74.01,4.848H70.267ZM36.576,25.222,35.41,28.659l2.946-2.148L41.3,28.659l-1.166-3.437L43.2,23.074H39.583l-1.166-3.437-1.166,3.437H33.63Zm0-15.281L35.41,13.378l2.946-2.148L41.3,13.378,40.135,9.942l2.946-2.148H39.46L38.294,4.357,37.128,7.794H33.507ZM48.481,28.107l-1.166,3.437L50.261,29.4l2.946,2.148L52.04,28.107l2.946-2.148H51.365L50.2,22.522l-1.166,3.437H45.413ZM48.481,7l-1.166,3.437,2.946-2.148,2.946,2.148L52.04,7l2.946-2.148H51.365L50.2,1.411,49.033,4.848H45.413Zm12.4,22.215-1.166,3.437L62.657,30.5,65.6,32.648l-1.166-3.437,2.946-2.148H63.762L62.6,23.627,61.43,27.063H57.686Zm0-23.627L59.711,9.021l2.946-2.148L65.6,9.021,64.437,5.585l2.946-2.148H63.762L62.6,0,61.43,3.437H57.686Zm1.964,117.275V120.9c-2.393-.245-2.516-3.437-2.271-5.032a71.436,71.436,0,0,1,1.718-10.739,7.684,7.684,0,0,0,.43-1.473c0,.123,0,.368.123.43V98.926l-.123.245a60.646,60.646,0,0,0-5.339-10.739c-1.718-2.639-6.751-2.516-6.751,2.946,0,14.36-6.26,27.861-15.526,28.659C41.73,116.6,45.842,97.085,45.842,91.746c.123-5.953-8.776-6.26-8.653,1.043.123,6.935,2.516,26.572-9.328,27.616h-.245a2.69,2.69,0,0,0-2.639-2.271,2.556,2.556,0,0,0-2.025,1.043c-6.935-4.48-3.559-10.371-1.043-10.494a2.169,2.169,0,0,1,2.025,2.025c-.245,2.393-3.559,1.718-3.437,1.964.675,1.166,1.964,1.718,3.989,1.473,6.935-2.762-2.025-14.974-9.451-3.621.245-8.776,16.079-11.66,16.079-2.946,4.234-2.516.245-8.53-6.873-7.978,4.112-3.437,5.339-6.935,4.787-8.776a3.743,3.743,0,0,0-4.234-3.068c-3.068.552-4.664,5.462-.675,6.382-2.823-7.548,5.707-5.032,2.639-.245-4.112,6.751-11.967,5.953-13.44,15.772-2.271-5.707,1.6-14.237,6.751-21.479,3.437-4.909,5.032-9.144,4.48-11.046a3.485,3.485,0,0,0-3.068-2.393,2.556,2.556,0,0,0-2.639,2.148,2.618,2.618,0,0,0,2.271,3.191c-2.516-4.787,2.271-4.234,1.841-1.227-.43,4.48-14.728,18.472-12.212,29.089-.123-.245-.368-1.043-.675-1.841-2.639-6.075,1.227-12.765,2.516-20.62,0-3.437-4.357-4.234-6.382-1.718-1.964,2.025-.43,5.155.8,4.787-.552-2.148-.368-3.068.552-4.357,1.473-1.35,3.989,0,3.559,1.841-.552,3.068-3.621,9.7-3.559,16.2C5.585,98.5,3.559,95.735,0,96.1,6.382,97.33,4.48,119.484,22.277,122a2.819,2.819,0,0,0,2.639,1.964,2.556,2.556,0,0,0,2.025-1.043c.123,0,.368,0,.43.123,23.259,2.148,29.211-21.909,30.255-30.009a34.969,34.969,0,0,1,4.48,8.776c-3.621,9.083-6.444,20.19.736,21.049h0m34.55-.307c.245,0,.245,0,.368-.123a2.843,2.843,0,0,0,2.025.921,2.8,2.8,0,0,0,2.639-1.964c17.92-2.516,15.956-24.731,22.338-25.9-3.559-.368-5.585,2.516-7.548,6.137.123-6.505-2.946-13.133-3.437-16.2-.43-1.718,1.964-3.191,3.559-1.841.921,1.227,1.166,2.148.552,4.357,1.35.368,2.762-2.762.8-4.787-2.025-2.516-6.382-1.718-6.382,1.718,1.35,7.978,5.278,14.606,2.639,20.62-.368.8-.552,1.6-.675,1.841,2.516-10.617-11.721-24.731-12.212-29.089-.43-2.946,4.357-3.559,1.841,1.227a2.7,2.7,0,0,0,2.393-3.191,2.643,2.643,0,0,0-2.762-2.148,3.253,3.253,0,0,0-2.946,2.393c-.43,2.025,1.043,6.137,4.48,11.046,5.032,7.18,9.021,15.772,6.751,21.479-1.473-9.942-9.328-9.021-13.44-15.772-2.946-4.787,5.585-7.3,2.639.245,3.989-.921,2.393-5.83-.675-6.382a3.894,3.894,0,0,0-4.357,3.068c-.552,1.718.675,5.339,4.909,8.776-7.057-.552-11.046,5.462-6.935,7.978,0-8.653,15.833-5.83,16.079,2.946-7.548-11.292-16.447,1.043-9.451,3.621,2.025.368,3.191-.245,3.866-1.473.123-.123-3.191.43-3.437-1.964a2.169,2.169,0,0,1,2.025-2.025c2.516.123,5.953,5.953-1.043,10.494a2.745,2.745,0,0,0-2.025-1.043,2.657,2.657,0,0,0-2.639,2.271c-11.66-1.227-9.267-20.743-9.144-27.616.123-7.3-8.776-6.935-8.53-1.043,0,5.462,4.112,24.854,10.617,28.291-9.267-.8-15.4-14.36-15.4-28.659,0-5.585-5.032-5.585-6.751-2.946V87.7L68,87.818h.123c-.123.245-.245.43-.368.675-1.043,2.025-2.946,5.707-4.664,9.942v5.155a5.392,5.392,0,0,1,.123,1.043,91.249,91.249,0,0,1,2.148,10.739c.43,3.743-1.473,4.787-2.271,5.032v1.964c6.382-1.227,4.357-12.212.8-21.479a34.958,34.958,0,0,1,3.866-8.223c.982,9.205,7.18,31.85,29.641,29.886M80.086,82.479a3.459,3.459,0,0,0,3.437,3.559,3.387,3.387,0,0,0,3.437-3.559,3.431,3.431,0,0,0-3.437-3.437,3.512,3.512,0,0,0-3.437,3.437M66.953,81.5a3.437,3.437,0,0,0,6.873,0,3.538,3.538,0,0,0-3.437-3.559A3.622,3.622,0,0,0,66.953,81.5M51.3,81.8a3.459,3.459,0,0,0,3.559,3.437A3.356,3.356,0,0,0,58.3,81.8a3.5,3.5,0,0,0-7,0m-12.887.8a3.562,3.562,0,0,0,3.559,3.559A3.387,3.387,0,0,0,45.413,82.6a3.431,3.431,0,0,0-3.437-3.437A3.538,3.538,0,0,0,38.417,82.6M87.266,42.467c2.393-.921,13.44-1.841,13.44,4.909a3.465,3.465,0,0,1-3.621,3.559c-4.787.123-2.823-5.462-2.946-5.462-11.415,0-6.873,24.547-6.382,28.291-.123,3.068-1.964,3.989-4.112,4.112a3.41,3.41,0,0,1-3.621-2.516C79.227,73.09,78.981,51.3,90.15,44c-3.068,0-12.212,6.075-16.2,18.226a39.5,39.5,0,0,1,0,9.021c-.123,3.191-.921,5.339-3.866,5.339-2.393,0-4.112-1.841-3.866-5.339.552-6.382,2.823-25.222-3.621-28.291-6.751,2.762-3.437,26.818-3.437,28.414.123,2.516-.43,5.339-4.112,5.339-3.989,0-3.866-2.516-3.866-5.462,0-2.516.123-6.873.368-9.021C46.21,49.34,38.417,44,35.471,44,46.64,51.3,46.394,73.212,45.535,75.36a3.384,3.384,0,0,1-3.559,2.516c-2.271-.123-4.112-1.227-4.112-4.234.43-3.743,5.032-28.291-6.382-28.291-.123,0,1.841,5.585-2.946,5.462a3.431,3.431,0,0,1-3.621-3.559c0-6.751,11.046-5.953,13.44-4.909,5.585,2.025,10.862,7.978,13.808,15.035,1.227-7.3,5.462-15.772,10.739-16.631,5.278.921,9.328,9.328,10.862,16.569,2.516-6.444,6.382-11.66,13.5-14.851" fill="#003764"></path><path d="M373.71,249.019a11.408,11.408,0,0,0,2.025-.245,4.733,4.733,0,0,0,1.841-.921,6.116,6.116,0,0,0,1.227-1.35,4.936,4.936,0,0,0,.675-2.025,8.765,8.765,0,0,0,.245-2.516,10.587,10.587,0,0,0-.43-3.068,5.489,5.489,0,0,0-1.166-2.025,5.608,5.608,0,0,0-1.964-1.35,6.581,6.581,0,0,0-2.393-.43,5.892,5.892,0,0,0-2.025.368,4.375,4.375,0,0,0-1.6.921,10.386,10.386,0,0,0-1.227,1.473,6.465,6.465,0,0,0-.8,2.148,6.091,6.091,0,0,0,0,4.173,7.743,7.743,0,0,0,.8,2.025,10.959,10.959,0,0,0,1.227,1.6,5.517,5.517,0,0,0,1.6,1.043,19.409,19.409,0,0,0,1.964.184m-7.978-7.18a9.127,9.127,0,0,1,.245-2.025,10.813,10.813,0,0,1,.921-1.964,9.312,9.312,0,0,1,1.6-1.841,8.839,8.839,0,0,1,2.639-1.227,10.434,10.434,0,0,1,2.946-.368,8.1,8.1,0,0,1,2.393.368,7.747,7.747,0,0,1,2.025.921,12.737,12.737,0,0,1,1.964,1.841,6.8,6.8,0,0,1,1.043,1.841,6.288,6.288,0,0,1,.43,2.639,7.265,7.265,0,0,1-.368,2.516,6.755,6.755,0,0,1-1.043,1.964,10.288,10.288,0,0,1-1.841,1.718,5.847,5.847,0,0,1-2.148,1.043,10.836,10.836,0,0,1-2.823.43,9.4,9.4,0,0,1-2.762-.368,6.5,6.5,0,0,1-1.964-.921,5.141,5.141,0,0,1-1.6-1.473,5.429,5.429,0,0,1-1.227-2.148,10.07,10.07,0,0,1-.43-2.946m-13.931-7.3h3.191l1.964-.123c.552,0,1.166-.123,1.841-.123a5.254,5.254,0,0,1,2.823.552,3.993,3.993,0,0,1,1.6,1.6,4.66,4.66,0,0,1,.552,2.148,4.23,4.23,0,0,1-4.664,4.3,3.04,3.04,0,0,1-1.043-.123c-.245-.123-.552-.245-.921-.43-.123-.123-.245-.245-.245-.368l.123-.123a.451.451,0,0,1,.368.123,2.407,2.407,0,0,0,1.043.123,3.565,3.565,0,0,0,1.718-.43,3.363,3.363,0,0,0,1.227-1.227,4.433,4.433,0,0,0,.43-1.718,3.565,3.565,0,0,0-.43-1.718,3.129,3.129,0,0,0-1.166-1.35,2.066,2.066,0,0,0-1.227-.43,10.28,10.28,0,0,0-1.227-.245,4.31,4.31,0,0,0-1.718.245v2.516a15.487,15.487,0,0,0,.123,2.946v.675l.123,5.278v.982c0,.368,0,.675.123.8a5.388,5.388,0,0,0,1.6.368,2.743,2.743,0,0,0,.675.123.12.12,0,0,1,.123.123.429.429,0,0,1-.123.245.538.538,0,0,1-.368.123,1.717,1.717,0,0,1-.675-.123,8.147,8.147,0,0,0-1.6-.123l-2.025.123h-1.9V248.9l1.473-.368c.245-.123.368-.123.43-.245.123-.123.123-.368.123-.675v-1.1c0-.921,0-2.823-.123-5.83v-4.48a1.674,1.674,0,0,0-.245-1.043,4.636,4.636,0,0,0-2.148-.552v-.245c.184.307.184.307.184.184m-10.494-.123c0,.123.123.245.123.368v.245a.879.879,0,0,1-.43.123h-.614a1.224,1.224,0,0,0-.8.245c-.123.123-.245.245-.245.368l-.123,1.227V242.7a20.318,20.318,0,0,0,.245,3.866,2.381,2.381,0,0,0,.675,1.227,4.141,4.141,0,0,0,1.35.8,4.7,4.7,0,0,0,1.841.368,7.391,7.391,0,0,0,2.946-.552,3.373,3.373,0,0,0,1.473-1.6,7.657,7.657,0,0,0,.43-2.946v-2.639l-.123-3.314a8.569,8.569,0,0,0-.245-1.964.884.884,0,0,0-.368-.43,4.317,4.317,0,0,0-1.718-.552.451.451,0,0,0-.123-.368h4.971v.43a4.388,4.388,0,0,0-1.718.43c-.245.123-.245.43-.245.921v1.6l.123,2.393v2.148a18.764,18.764,0,0,1-.123,3.068,8.311,8.311,0,0,1-.552,1.841,4.635,4.635,0,0,1-1.043,1.227,5.673,5.673,0,0,1-1.718.921,6.071,6.071,0,0,1-2.148.368,9.331,9.331,0,0,1-2.393-.245,3.945,3.945,0,0,1-2.025-1.043,6.83,6.83,0,0,1-1.166-1.227,6.186,6.186,0,0,1-.43-2.516v-8.346c0-.43,0-.8-.245-.921-.123-.123-.245-.245-.368-.245h-.675c-.43,0-.8,0-.921-.123v-.245c0-.123,0-.123.123-.123a.451.451,0,0,1,.368-.123h3.007ZM324.8,241.287h.43a14.172,14.172,0,0,0,1.964-.245,5.725,5.725,0,0,0,1.227-.43,2.367,2.367,0,0,0,.8-1.043,2.8,2.8,0,0,0,.368-1.35,3.928,3.928,0,0,0-.43-1.718,3.759,3.759,0,0,0-1.227-1.166,3.973,3.973,0,0,0-2.148-.43h-.8v.921l.123,2.148v.921a6.122,6.122,0,0,0-.307,2.393m-4.234,7.61a6.979,6.979,0,0,0,1.964-.368c.123,0,.245-.123.245-.368v-.123a17.479,17.479,0,0,1,.123-2.025v-8.837a3.577,3.577,0,0,0-.245-1.6c-.123-.245-.43-.368-1.166-.43-.552-.123-.921-.123-1.043-.245-.123,0-.123-.123-.123-.245v-.245c.123-.123.245-.123.552-.123h4.787a12.145,12.145,0,0,1,3.621.368,3.219,3.219,0,0,1,1.6,1.227,3.15,3.15,0,0,1,.552,2.025,3.378,3.378,0,0,1-2.148,3.191,2.142,2.142,0,0,0-.552.368,7.753,7.753,0,0,0,1.166,1.964l1.473,2.516a14.869,14.869,0,0,0,1.227,1.718,1.869,1.869,0,0,0,.8.552,5.184,5.184,0,0,0,1.6.43v.368h-4.05c-.552-1.043-1.166-2.148-1.964-3.437l-1.718-3.068q-.368-.552-.552-.552a.825.825,0,0,0-.552-.123h-1.411V247.3a1.009,1.009,0,0,0,.123.552c.123.123.123.245.368.368a3.153,3.153,0,0,0,1.227.368l.43.123c.123.123.123.123.123.368h-6.628v-.123c-.061.061.061-.061.184-.061m-3.559-13.685.123,1.841a9.78,9.78,0,0,0,.123,1.043h-.368a6.916,6.916,0,0,0-1.964-2.639,4.85,4.85,0,0,0-2.823-.921,9.094,9.094,0,0,0-3.191.43,5.465,5.465,0,0,0-2.762,2.393,7.173,7.173,0,0,0-1.166,4.234,6.363,6.363,0,0,0,.43,2.516,4.869,4.869,0,0,0,1.227,2.025,7.053,7.053,0,0,0,1.841,1.718,3.7,3.7,0,0,0,1.6.675,5.766,5.766,0,0,0,1.6.123,3.113,3.113,0,0,0,1.473-.245,2.87,2.87,0,0,0,1.227-.552,1.348,1.348,0,0,0,.552-.675,4.883,4.883,0,0,0,.123-1.6,5.837,5.837,0,0,0-.245-2.271c-.123-.245-.675-.368-1.718-.43h-1.043l-.123-.368a.12.12,0,0,1,.123-.123c.43,0,1.227-.123,2.639-.123h4.6v.491a2.1,2.1,0,0,1-.8.123h-.8a.778.778,0,0,0-.552.245c-.123.123-.123.368-.123.921v1.473a6.853,6.853,0,0,1-.123,1.964.505.505,0,0,1-.368.43,3.215,3.215,0,0,1-.921.43,12.326,12.326,0,0,1-1.841.552,12.451,12.451,0,0,1-2.946.245,12.7,12.7,0,0,1-3.743-.552,7.648,7.648,0,0,1-2.516-1.6,6.047,6.047,0,0,1-1.473-2.025,8.04,8.04,0,0,1-.675-3.191,8.791,8.791,0,0,1,1.043-3.989,7.938,7.938,0,0,1,3.437-3.191,10.572,10.572,0,0,1,4.541-.8,11.092,11.092,0,0,1,3.191.368c1.289.491,1.964.859,2.393,1.043" transform="translate(-116.822 -90.321)" fill="#5a595c"></path><path d="M538.162,242.328l1.718-4.48c.245.43.552,1.166.921,2.025q.552,1.381.921,2.393h-.368c-.368.061-1.411.061-3.191.061m-5.523,6.505h.245a7,7,0,0,0,1.6-.123l.43-.123c1.841.123,2.946.245,3.437.245v-.8a3.236,3.236,0,0,0-.8-.123,1.444,1.444,0,0,1-1.043-.368.518.518,0,0,1-.123-.43,4.852,4.852,0,0,1,.245-.8,12.326,12.326,0,0,1,1.043-2.762h4.48l.921,2.271.43,1.166c0,.123.123.245.123.368s0,.245-.123.245-.245.123-.675.246l-1.227.245v.8h.552l1.964-.123h1.35a9.922,9.922,0,0,1,1.841.123c.675,0,1.227.123,1.964.123v-.245a1.01,1.01,0,0,0-.123-.552,3.226,3.226,0,0,0-1.043-.245.87.87,0,0,1-.675-.245c-.123,0-.245-.245-.368-.552-.368-.552-.43-1.166-.675-1.473a8.267,8.267,0,0,0-.675-1.6c-.245-.552-.552-1.35-.921-2.271s-.8-1.964-1.227-2.946l-2.025-4.787-.123-.245h-1.227l-2.762,7.18-2.271,6.137c-.245.368-.368.552-.43.675a2.289,2.289,0,0,1-1.043.368c-.368.123-.675.123-.8.245Zm-13.01-15.649c-.123.123-.123.43-.245.921a17.5,17.5,0,0,1-1.043,2.946,4.4,4.4,0,0,0,.675.43c.123,0,.245-.123.43-.368a14.344,14.344,0,0,1,1.473-1.6,3.309,3.309,0,0,1,1.473-.245h2.271c.123,0,.123,0,.123.123l.123.123c0,.245.123,1.043.123,2.148l.123,4.357a42.317,42.317,0,0,1-.123,4.48,3.913,3.913,0,0,1-.123.552,14.408,14.408,0,0,1-1.718.552,1.829,1.829,0,0,0-.92.43v.614h.8a18.858,18.858,0,0,1,2.025-.123,16.268,16.268,0,0,1,2.946.123,9.938,9.938,0,0,0,2.025.123h.43V248.4a.662.662,0,0,0-.123-.43,4.863,4.863,0,0,1-.552-.245c-.552-.123-.8-.123-.92-.245a3.334,3.334,0,0,1-.675-.123,3.062,3.062,0,0,1-.123-1.166v-10.8h3.314c.123,0,.245.123.368.245.123,0,.245.368.43.921a3.611,3.611,0,0,0,.675,1.227,2,2,0,0,0,.8-.245V233h-.8c0,.123-.123.245-.123.368a1.05,1.05,0,0,1-.368.552l-.675.123H521.04a4.407,4.407,0,0,1-.43-.675.38.38,0,0,0-.123-.245Zm-3.5,1.043a5.387,5.387,0,0,0-1.718-.43,11.39,11.39,0,0,0-1.6-.245,5.616,5.616,0,0,0-3.866,1.227,4.112,4.112,0,0,0-1.227,3.068,5.179,5.179,0,0,0,.43,1.964,6.827,6.827,0,0,0,1.227,1.6,15.512,15.512,0,0,0,2.946,1.35,8.84,8.84,0,0,1,2.639,1.227,2.03,2.03,0,0,1,.8,1.6,1.769,1.769,0,0,1-.43,1.227,3.091,3.091,0,0,1-1.227.921,5.219,5.219,0,0,1-1.35.245,3.631,3.631,0,0,1-1.227-.245,3.311,3.311,0,0,1-1.043-.552,2.89,2.89,0,0,1-.8-.921,9.768,9.768,0,0,1-.675-1.6h-1.043v3.191a.429.429,0,0,0,.123.245.981.981,0,0,0,.675.245l1.35.43a13.138,13.138,0,0,0,1.964.245,9.127,9.127,0,0,0,2.025-.245,5.253,5.253,0,0,0,1.473-.675,9.028,9.028,0,0,0,1.043-.8,2.521,2.521,0,0,0,.675-1.043,6.086,6.086,0,0,0,.43-2.148,6.8,6.8,0,0,0-.245-1.718,4.41,4.41,0,0,0-.921-1.35A10.183,10.183,0,0,0,515.087,240a7,7,0,0,0-1.718-.675,8.464,8.464,0,0,1-2.762-1.227,2.032,2.032,0,0,1-.675-1.35,2.062,2.062,0,0,1,.675-1.473,2.46,2.46,0,0,1,1.841-.552,2.843,2.843,0,0,1,2.025.921,6.013,6.013,0,0,1,1.043,2.025h1.043v-.43a11.332,11.332,0,0,0-.123-1.841,3.925,3.925,0,0,0-.307-1.166m-18.165,14.606a4.983,4.983,0,0,0,1.043-.123,10.958,10.958,0,0,1,1.841-.123h2.025c.921.123,1.35.123,1.473.245h1.043v-.921a1.628,1.628,0,0,1-.675-.123,4.831,4.831,0,0,1-1.227-.245.429.429,0,0,0-.123-.245v-2.7l.123-1.6v-6.812a2.1,2.1,0,0,1,.123-.921,4.887,4.887,0,0,1,1.043-.368,9.934,9.934,0,0,0,1.043-.368v-.8a4.983,4.983,0,0,0-1.043.123,16.822,16.822,0,0,1-2.148.123h-.8l-3.314-.123V234.9h.43a3.757,3.757,0,0,1,1.473.245,1.236,1.236,0,0,0,.123.368v.43l.123,1.227v2.148s0,.8-.123,2.393v4.664a2.373,2.373,0,0,1-.245,1.043,4.308,4.308,0,0,1-1.166.368,6.369,6.369,0,0,0-.8.245v.8Zm-11.292-8.223V234.9h.921a5.316,5.316,0,0,1,1.6.123,3.217,3.217,0,0,1,1.166.675,1.612,1.612,0,0,1,.43.921,5.22,5.22,0,0,1,.245,1.35,2.251,2.251,0,0,1-.8,1.841,4.547,4.547,0,0,1-2.762.675c-.123.245-.43.123-.8.123m-5.155,7.548v.736h.43a5.5,5.5,0,0,0,1.35-.123l1.6-.123h.43c.368,0,1.227.123,2.946.245h.675v-.921a3.785,3.785,0,0,0-1.6-.43c-.368-.123-.552-.123-.8-.368l.123-2.148-.123-2.516v-.8h.8a2.54,2.54,0,0,1,1.166.245,6.826,6.826,0,0,1,.8,1.227c.8,1.6,1.35,2.823,1.718,3.559a8.865,8.865,0,0,0,.675,1.227l.368.8c.123,0,.368,0,.43-.123a2.665,2.665,0,0,1,.8-.123h1.166a2.1,2.1,0,0,1,.921.123h.43l.552.123h.614v-.245a.451.451,0,0,0-.123-.368,4.968,4.968,0,0,0-.8-.368,4.421,4.421,0,0,1-.921-.43,10.279,10.279,0,0,1-.921-1.35l-1.841-2.946c-.246-.368-.43-.675-.8-1.166a4.3,4.3,0,0,0-.368-.552,4.2,4.2,0,0,0,2.271-1.473,4.012,4.012,0,0,0,.8-2.148,3.539,3.539,0,0,0-1.35-2.762,5.5,5.5,0,0,0-3.743-1.227,20.354,20.354,0,0,0-2.823.123l-1.473.123h-.552a4.7,4.7,0,0,1-.921-.123h-1.043a3.04,3.04,0,0,0-1.043.123v.8a11.071,11.071,0,0,0,1.227.123l.675.123V247.36a.451.451,0,0,1-.123.368,3.225,3.225,0,0,1-1.043.245c-.061-.061-.43.061-.552.184m-11.353-5.83,1.718-4.48c.245.43.552,1.166.921,2.025q.552,1.381.921,2.393h-.245c-.491.061-1.534.061-3.314.061m-5.523,6.505h.245a7,7,0,0,0,1.6-.123l.43-.123c1.841.123,2.946.245,3.437.245v-.8a3.236,3.236,0,0,0-.8-.123,1.444,1.444,0,0,1-1.043-.368.518.518,0,0,1-.123-.43,4.852,4.852,0,0,1,.245-.8c.552-1.473.921-2.393,1.043-2.762h4.48l.921,2.271.43,1.166v.368c0,.123,0,.245-.123.245a3.124,3.124,0,0,0-.675.246l-1.227.245v.8h.552l1.964-.123h1.35a9.922,9.922,0,0,1,1.841.123c.675,0,1.35.123,1.964.123v-.8a3.226,3.226,0,0,0-1.043-.245.87.87,0,0,1-.675-.245c-.123,0-.245-.245-.368-.552-.368-.552-.43-1.166-.675-1.473a8.271,8.271,0,0,0-.675-1.6c-.245-.552-.552-1.35-.921-2.271s-.8-1.964-1.227-2.946l-2.025-4.787-.123-.245h-1.227l-2.762,7.18-2.271,6.137c-.245.368-.368.552-.43.675s-.43.245-1.043.368a6.369,6.369,0,0,0-.8.245Zm-20.742,0v-.8a4.632,4.632,0,0,0,1.841-.552,2.9,2.9,0,0,0,.368-1.473l.123-4.112.123-4.234v-.43a4.947,4.947,0,0,0-.245-1.964,2.92,2.92,0,0,0-1.473-.43,1.211,1.211,0,0,1-.43-.123v-.8h1.043l3.437.123h.921a4.311,4.311,0,0,1,.368.552,17.033,17.033,0,0,1,1.166,2.516l.123.368,1.841,3.866c0,.123.123.245.245.43.123.245.245.552.368.8s.245.552.368.8a4.967,4.967,0,0,0,.368.8,4.3,4.3,0,0,1,.368-.552c.368-.675.552-1.35.92-1.964.43-1.043,1.227-2.639,2.025-4.787.123-.368.368-.921.675-1.6.368-.675.43-1.043.552-1.166a.518.518,0,0,1,.43-.123h1.841a9.02,9.02,0,0,0,1.964-.123,2.824,2.824,0,0,0,.8-.123h.245v.982a10.009,10.009,0,0,0-1.718.43.545.545,0,0,0-.43.552v.245l.245,3.559c0,.368.123,1.964.245,4.787,0,.675.123,1.473.123,2.516v.368c0,.245,0,.368.123.368s.8.245,2.025.675v.675a10.87,10.87,0,0,1-1.6-.123,15.641,15.641,0,0,0-2.393-.123,29.908,29.908,0,0,0-3.314.123h-.368v-.8a10.25,10.25,0,0,1,1.227-.368c.368-.123.552-.123.675-.368.123-.123.123-.552.123-1.227v-.675c0-.8-.123-1.964-.123-3.437l-.245-4.112a2.586,2.586,0,0,0-.123-1.166l-2.823,6.628a2.2,2.2,0,0,0-.368.675,2,2,0,0,0-.368.8c-.552,1.473-1.043,2.516-1.227,3.314a6.371,6.371,0,0,0-.245.8H452.8l-.552-1.841c-.245-.43-.43-1.166-.921-2.025-.245-.552-.43-1.043-.552-1.35a.451.451,0,0,1-.123-.368l-.123-.368v-.123l-1.718-3.621-1.043-2.271-.123,5.462-.123,3.559a1.629,1.629,0,0,0,.368,1.227,5.329,5.329,0,0,0,1.35.675l.552.123v.8a6.485,6.485,0,0,1-1.473-.123,9.047,9.047,0,0,0-2.025-.123,6.656,6.656,0,0,1-2.393.368" transform="translate(-171.486 -90.012)" fill="#5a595c"></path><rect width="271.432" height="1.166" transform="translate(145.995 126.787)" fill="#5a595c"></rect><path d="M237.2,105.808l.123-2.025c2.516-.368,4.112-.8,4.787-1.473.43-.43.8-1.718,1.043-3.743l.368-10.739.43-10.924a9.479,9.479,0,0,1,.123-1.227c0-2.823-.123-4.48-.43-4.909-.368-.43-1.6-.921-3.866-1.227a9.956,9.956,0,0,1-1.35-.368c0-.43-.123-.921-.123-1.227v-.921a17.3,17.3,0,0,1,2.639-.123l8.776.368a2.1,2.1,0,0,1,.8.123l1.35.123a8.983,8.983,0,0,1,1.043,1.6c.675,1.473,1.718,3.621,2.946,6.505l.368.8,4.664,10.249a11.236,11.236,0,0,1,.43,1.043,14.775,14.775,0,0,1,.921,2.025c.368.675.675,1.35,1.043,2.148a15.33,15.33,0,0,0,1.043,2.025c.245-.43.552-1.043.8-1.6q1.2-2.762,2.393-5.155c1.35-2.762,3.068-6.935,5.339-12.581.368-.921.921-2.271,1.841-4.112a16.346,16.346,0,0,1,1.35-2.823,2.348,2.348,0,0,1,1.166-.245h.921a33.975,33.975,0,0,1,3.743-.123c2.025,0,3.743-.123,5.155-.245a21.226,21.226,0,0,1,2.148-.123,1.439,1.439,0,0,1,.675.123V67.7l-.123.921v.8a14.074,14.074,0,0,0-4.541,1.227c-.8.43-1.227.921-1.227,1.473v.43l.552,9.267c.123.8.245,5.032.43,12.581.123,1.718.245,3.866.368,6.382,0,.368.123.552.123.8a1,1,0,0,0,.368.921c.245.123,2.025.675,5.339,1.718v1.9c-.552,0-1.964-.123-4.112-.368a54.686,54.686,0,0,0-6.137-.368c-2.946,0-5.707.123-8.53.368-.368,0-.675.123-1.043.123l.123-2.025a15.431,15.431,0,0,1,3.314-.8,2.715,2.715,0,0,0,1.841-.8,7.909,7.909,0,0,0,.368-3.191V97.339c-.123-2.148-.123-5.032-.245-8.776l-.43-10.617c-.123-1.473-.123-2.516-.245-3.191L268.5,92c-.245.43-.43,1.043-.8,1.718-.43,1.043-.8,1.718-.921,2.025a80.864,80.864,0,0,0-3.191,8.53c-.123.43-.43,1.166-.675,1.964h-2.271l-1.6-4.541a39.982,39.982,0,0,0-2.516-5.462c-.675-1.473-1.227-2.639-1.6-3.437a2.005,2.005,0,0,1-.368-.8l-.368-.8a.451.451,0,0,0-.123-.368l-4.48-9.7-2.823-6.26-.245,14.237-.245,9.267a5.336,5.336,0,0,0,.921,3.314,7.583,7.583,0,0,0,3.621,1.718l1.473.368v2.148c-1.166,0-2.393-.123-3.743-.245s-3.068-.245-5.339-.245c-.552.061-2.516.184-6.014.368" transform="translate(-91.634 -25.845)" fill="#003764"></path><path d="M326.2,105.344l.123-2.025a20.193,20.193,0,0,1,2.025-.43,11.09,11.09,0,0,0,2.823-.8,7.291,7.291,0,0,0,1.227-1.718l6.076-15.956,7.18-18.717h3.314l.245.552,5.278,12.458c1.166,2.639,2.271,5.278,3.191,7.671q1.381,3.774,2.393,6.075c.43.921.921,2.393,1.718,4.234a34.981,34.981,0,0,0,1.718,3.866c.43.8.675,1.35.921,1.473a2.988,2.988,0,0,0,1.718.552,16.709,16.709,0,0,1,2.639.675,7.665,7.665,0,0,1,.123,1.473v.675c-1.473,0-3.068-.123-4.909-.245s-3.437-.245-4.787-.245a24.367,24.367,0,0,0-3.437.123l-5.155.245-1.473.123a11.222,11.222,0,0,1,.123-2.025l3.314-.675a5.678,5.678,0,0,0,1.718-.552.944.944,0,0,0,.368-.675,1.812,1.812,0,0,0-.123-.8l-1.227-2.946-2.393-5.953-11.66-.123c-.43.921-1.35,3.314-2.639,7.057a8.8,8.8,0,0,0-.552,2.148,1.366,1.366,0,0,0,.43,1.166,5.118,5.118,0,0,0,2.639.8,18.322,18.322,0,0,1,2.148.368v1.473a1.321,1.321,0,0,1-.123.675c-1.227,0-4.234-.123-8.9-.43l-1.227.245a25.211,25.211,0,0,1-4.234.368H326.2Zm14.176-17c4.664.123,7.548.123,8.346.123h.8a57,57,0,0,0-2.393-6.26,47.747,47.747,0,0,0-2.393-5.462Z" transform="translate(-126.016 -25.381)" fill="#003764"></path><path d="M397.607,103.557a7.623,7.623,0,0,1,2.271-.552,11.376,11.376,0,0,0,2.762-.675,6.262,6.262,0,0,1,.245-.921c0-.245.123-1.227.123-2.823V91.836l.123-3.621-.123-2.823.123-1.6c.123-2.148.123-4.234.123-6.137,0-4.234,0-6.873-.123-7.978l-1.841-.368a30.443,30.443,0,0,1-3.314-.368l-.123-1.841.123-.368a25.387,25.387,0,0,1,2.762-.245h2.823c1.473.123,2.271.245,2.393.245l1.6-.123,3.743-.245A71.609,71.609,0,0,1,418.718,66c4.112,0,7.426,1.043,9.819,3.191a9.364,9.364,0,0,1,3.621,7.18,9.11,9.11,0,0,1-1.964,5.585,11.363,11.363,0,0,1-6.075,3.743q.368.644.921,1.473c.8,1.227,1.473,2.271,2.025,3.068L431.85,98.1a24.3,24.3,0,0,0,2.393,3.621,9.185,9.185,0,0,0,2.271,1.166,7.58,7.58,0,0,1,2.025,1.043,3.447,3.447,0,0,1,.245.921v.675h-1.35l-1.6-.245h-1.227a14.111,14.111,0,0,0-2.393-.123h-2.946c-.245,0-.92.123-2.148.245a5.636,5.636,0,0,1-1.227.123l-1.043-1.964c-.8-1.473-1.473-2.639-1.841-3.437-.921-1.964-2.393-5.032-4.541-9.328-1.043-1.964-1.718-3.068-2.148-3.314a5.257,5.257,0,0,0-3.068-.675,13.865,13.865,0,0,0-2.025.123,9.938,9.938,0,0,0-.123,2.025l.123,6.751-.245,5.707a7.17,7.17,0,0,0,2.148.8,20.989,20.989,0,0,1,3.989,1.166,11.3,11.3,0,0,1-.123,2.271h-.675l-1.227.123c-4.357-.368-6.873-.552-7.671-.552H406.26l-4.234.245c-1.227.123-2.393.245-3.437.245h-1.166a6.669,6.669,0,0,0-.123-.921,8.963,8.963,0,0,0,.307-1.227m13.562-19.515c.921,0,1.718.123,2.148.123,3.437,0,5.83-.552,7.3-1.841a5.965,5.965,0,0,0,2.148-4.909,13.1,13.1,0,0,0-.552-3.559,7.961,7.961,0,0,0-1.227-2.516,8.32,8.32,0,0,0-2.946-1.841,12.5,12.5,0,0,0-4.234-.43,14.112,14.112,0,0,0-2.393.123l-.123.552.123,4.112-.123,2.516v3.314c0,.921-.123,2.148-.123,3.559Z" transform="translate(-153.484 -25.497)" fill="#003764"></path><path d="M467.9,105.769v-2.148a7.956,7.956,0,0,1,1.964-.43,12.628,12.628,0,0,0,2.823-1.043,4.973,4.973,0,0,0,.552-2.639V95.95l.123-6.873V87.543c.123-3.989.245-6.075.245-6.137l-.123-3.989.123-1.6-.123-3.437-.123-1.227a3.447,3.447,0,0,0-.245-.921,12.755,12.755,0,0,0-3.989-.675,2.556,2.556,0,0,1-1.043-.123l-.123-2.639,8.653.368c1.043,0,1.718.123,1.964.123,1.166,0,3.068-.123,5.707-.245a23.9,23.9,0,0,0,2.762-.245v.921a5.756,5.756,0,0,1-.123,1.35c-.8.245-1.718.552-2.762.8a10.136,10.136,0,0,0-2.516.8,9.739,9.739,0,0,0-.245,2.271,10.606,10.606,0,0,0,.123,2.148c-.123,3.437-.123,6.075-.123,7.855v7.978l-.123,3.989.123,6.075-.123,1.166a3.126,3.126,0,0,0,.245.675c1.227.245,2.271.43,3.314.552.245,0,.8.123,1.841.245a7.043,7.043,0,0,1,.123,1.473v1.043h-.552a6.96,6.96,0,0,0-1.166.123,2.451,2.451,0,0,1-.8-.123c-.245,0-1.6-.245-3.989-.43l-5.339-.123a42.493,42.493,0,0,0-4.664.368,9.974,9.974,0,0,0-2.393-.184" transform="translate(-180.758 -25.806)" fill="#003764"></path><path d="M531.1,67.018a17.6,17.6,0,0,1,.552,3.068,42.173,42.173,0,0,1,.368,4.787,3.776,3.776,0,0,1-.123,1.166l-.368.123-2.148-.123-.368-.123a16.811,16.811,0,0,0-2.639-5.339,7.1,7.1,0,0,0-5.339-2.393,6.608,6.608,0,0,0-4.664,1.6,4.868,4.868,0,0,0-1.718,3.866,5.5,5.5,0,0,0,1.718,3.743c1.166,1.166,3.559,2.271,7.18,3.437a33.8,33.8,0,0,1,4.48,1.718,14.035,14.035,0,0,1,3.989,2.639,10.775,10.775,0,0,1,2.516,3.621,12.74,12.74,0,0,1,.675,4.357,15.81,15.81,0,0,1-1.043,5.585,10.311,10.311,0,0,1-1.841,2.762,16.233,16.233,0,0,1-6.812,3.866,20.415,20.415,0,0,1-5.278.552,35.6,35.6,0,0,1-5.032-.552l-3.621-1.043a5.659,5.659,0,0,1-1.964-.8.674.674,0,0,1-.245-.552v-.368c0-.245,0-1.6-.123-4.112,0-1.227-.123-2.271-.123-2.762V94.573l2.823-.123c.921,2.271,1.6,3.621,1.841,4.112a8.31,8.31,0,0,0,2.025,2.516,6.64,6.64,0,0,0,2.762,1.473,10.094,10.094,0,0,0,3.437.552,11.016,11.016,0,0,0,3.559-.675,6.966,6.966,0,0,0,3.191-2.271,5.418,5.418,0,0,0,1.166-3.437,5.635,5.635,0,0,0-2.025-4.112c-.8-.8-3.068-1.841-6.873-3.191a30.337,30.337,0,0,1-7.671-3.559,12.682,12.682,0,0,1-3.437-4.112,12.1,12.1,0,0,1-1.227-5.032,10.8,10.8,0,0,1,3.437-8.1c2.271-2.271,5.707-3.314,10.126-3.314a30.462,30.462,0,0,1,4.357.43,36.943,36.943,0,0,1,4.48,1.289" transform="translate(-196.519 -25.226)" fill="#003764"></path><path d="M558.375,63.923h1.841a.884.884,0,0,0,.368.43c.552,1.043,1.043,1.6,1.227,1.964a24.614,24.614,0,0,0,4.112.123h4.112l.552-.123H590.41l1.841-.245a3.441,3.441,0,0,0,.8-1.473,4.968,4.968,0,0,0,.368-.8h2.271V74.294a4.2,4.2,0,0,1-.123,1.35,8.261,8.261,0,0,1-2.148.43,16.132,16.132,0,0,1-1.718-3.437,17.845,17.845,0,0,0-1.166-2.516,1.3,1.3,0,0,0-.8-.43,61.882,61.882,0,0,0-6.382-.123,14.956,14.956,0,0,0-2.148.123,12.321,12.321,0,0,0-.123,1.964V84.543l.123,9.573v3.866a11.092,11.092,0,0,0,.368,3.191,10.364,10.364,0,0,0,1.841.368c.123,0,.921.245,2.271.43.552.123,1.166.368,1.6.43a7.293,7.293,0,0,1,.123,1.35,2.1,2.1,0,0,1-.123.8h-1.166c-2.025,0-3.866-.123-5.278-.245-1.35-.123-4.112-.245-7.855-.245-.552,0-2.393.123-5.339.368a20.8,20.8,0,0,1-2.271.123c0-.368,0-.552-.123-.675v-.921a3.733,3.733,0,0,1,2.516-1.227,18.458,18.458,0,0,0,4.357-1.35,2.761,2.761,0,0,0,.368-1.473c.123-2.393.245-6.26.245-11.537l-.123-11.415a42.081,42.081,0,0,0-.245-5.707.442.442,0,0,0-.245-.43.518.518,0,0,0-.43-.123,59.463,59.463,0,0,0-6.076-.123,8.8,8.8,0,0,0-3.743.552c-.921.43-2.148,1.841-3.866,4.112a1.718,1.718,0,0,1-1.166.921A10.91,10.91,0,0,1,555,73.987a71.945,71.945,0,0,0,2.639-7.855,6.793,6.793,0,0,1,.736-2.209" transform="translate(-214.406 -24.647)" fill="#003764"></path><path d="M623.1,105.344l.123-2.025a20.2,20.2,0,0,1,2.025-.43,11.09,11.09,0,0,0,2.823-.8,5.846,5.846,0,0,0,1.227-1.718l6.075-15.956,7.18-18.717h3.314l.245.552,5.278,12.458c1.166,2.639,2.271,5.278,3.191,7.671q1.381,3.774,2.393,6.075c.43.921.921,2.393,1.718,4.234a34.99,34.99,0,0,0,1.718,3.866c.43.8.675,1.35.921,1.473a2.987,2.987,0,0,0,1.718.552,16.709,16.709,0,0,1,2.639.675,7.665,7.665,0,0,1,.123,1.473v.675c-1.473,0-3.068-.123-4.909-.245s-3.437-.245-4.787-.245a24.367,24.367,0,0,0-3.437.123l-5.155.245-1.473.123a11.222,11.222,0,0,1,.123-2.025l3.314-.675a5.678,5.678,0,0,0,1.718-.552.944.944,0,0,0,.368-.675,1.812,1.812,0,0,0-.123-.8l-1.227-2.946-2.393-5.953H636.294c-.43.921-1.35,3.314-2.639,7.057a8.8,8.8,0,0,0-.552,2.148,1.366,1.366,0,0,0,.43,1.166,5.118,5.118,0,0,0,2.639.8,18.33,18.33,0,0,1,2.148.368v1.473a1.321,1.321,0,0,1-.123.675c-1.227,0-4.234-.123-8.9-.43l-1.227.245a25.211,25.211,0,0,1-4.234.368h-.675v-.307Zm14.176-17c4.664.123,7.548.123,8.346.123h.8a56.99,56.99,0,0,0-2.393-6.26,47.747,47.747,0,0,0-2.393-5.462Z" transform="translate(-240.714 -25.381)" fill="#003764"></path><path d="M237.5,172.245a.38.38,0,0,1,.245-.123,8.525,8.525,0,0,1,.921-.123,14.6,14.6,0,0,0,1.964-.245,1.656,1.656,0,0,0,.245-.921V159.848l-.123-4.48a4.166,4.166,0,0,0-.245-1.841,2.6,2.6,0,0,0-1.718-.368,2.555,2.555,0,0,1-1.043-.123c-.123-.123-.245-.123-.245-.245a.451.451,0,0,1,.123-.368.429.429,0,0,0,.245-.123h.552a9.614,9.614,0,0,0,1.964.123h1.166l2.762.123H249.1a14.623,14.623,0,0,1,1.841.123h3.743l.123.123a.429.429,0,0,0,.123.245,1.717,1.717,0,0,1-.123.675c0,.368-.123.43-.123.552a17.764,17.764,0,0,0,.123,2.762c0,.123,0,.123-.123.123h-.368a11.243,11.243,0,0,1-.43-1.043,5.26,5.26,0,0,0-.921-1.718,4.008,4.008,0,0,0-.552-.8c-.123-.123-.43-.123-.921-.123h-2.148l-4.48.123H244.5a1.674,1.674,0,0,0-1.043.245c-.245.245-.245,1.043-.245,2.148,0,.123,0,1.35.123,3.743v2.148h2.946c1.166,0,2.639-.123,4.357-.123a2.67,2.67,0,0,0,1.043-.368,5.363,5.363,0,0,0,.368-1.473c.123-.8.245-1.227.552-1.35a.451.451,0,0,1,.368.123v.614c0,.368-.123,1.6-.123,3.621a9.922,9.922,0,0,0,.123,1.841,6.226,6.226,0,0,1,.123,1.166v.368c-.123,0-.123.123-.245.123h-.123a5.836,5.836,0,0,1-.43-1.35,3.393,3.393,0,0,0-.921-1.964,2.472,2.472,0,0,0-1.473-.43h-3.559a14.683,14.683,0,0,0-2.823.123v7.057a4.166,4.166,0,0,0,.245,1.841,1.471,1.471,0,0,0,1.166.368h4.112a26.245,26.245,0,0,0,4.112-.245,4.231,4.231,0,0,0,1.718-.921,8.274,8.274,0,0,0,1.6-2.823c.245-.43.43-.675.552-.675a.451.451,0,0,1,.368.123c-.368,1.043-.43,1.718-.552,2.025a12.864,12.864,0,0,0-.245,2.271,2.033,2.033,0,0,1-.245.921h-6.689l-4.664.123h-2.639c-1.964.123-3.314.123-4.234.123a.451.451,0,0,1-.368-.123c-.123,0-.123-.123-.123-.245v-.368Z" transform="translate(-91.75 -58.836)" fill="#003764"></path><path d="M284.076,152.589a7.127,7.127,0,0,1,.123,1.227l-.123,1.35a2.587,2.587,0,0,1-.123,1.166.429.429,0,0,0-.245.123h-.123a5.871,5.871,0,0,0-1.718-3.191,4.544,4.544,0,0,0-2.946-1.043,4.314,4.314,0,0,0-2.946,1.043,3.016,3.016,0,0,0-1.166,2.393,2.617,2.617,0,0,0,.8,1.841,23.388,23.388,0,0,0,4.112,2.516,37.48,37.48,0,0,1,3.621,2.148,5.5,5.5,0,0,1,1.6,1.964,4.925,4.925,0,0,1,.552,2.393,6.617,6.617,0,0,1-.921,3.191,5.357,5.357,0,0,1-2.393,2.271,9.787,9.787,0,0,1-3.866.8,13.73,13.73,0,0,1-4.112-.675c-.8-.245-1.227-.43-1.35-.675a.914.914,0,0,1-.245-.552v-.43c.123-1.227.245-2.271.245-3.068a6.67,6.67,0,0,1,.123-.921c0-.123.123-.123.245-.123s.123,0,.245.123a.451.451,0,0,1,.123.368,5.2,5.2,0,0,0,1.841,3.437,4.908,4.908,0,0,0,3.621,1.473,5.624,5.624,0,0,0,2.271-.552,3.706,3.706,0,0,0,1.6-1.473,3.807,3.807,0,0,0,.552-1.964,3.688,3.688,0,0,0-.921-2.271,15.664,15.664,0,0,0-3.621-2.516,29.268,29.268,0,0,1-3.559-2.025,6.1,6.1,0,0,1-1.964-2.271,3.973,3.973,0,0,1-.43-2.148,4.709,4.709,0,0,1,1.718-3.743,6.761,6.761,0,0,1,4.664-1.473,9.119,9.119,0,0,1,2.762.368,14.123,14.123,0,0,1,1.964.921" transform="translate(-105.31 -58.45)" fill="#003764"></path><path d="M315.66,152.757a15.9,15.9,0,0,1,.245,2.516v.675h-.614a5.561,5.561,0,0,0-2.148-2.823,6.586,6.586,0,0,0-3.621-1.043,8.1,8.1,0,0,0-1.964.245,9.807,9.807,0,0,0-2.516,1.35A8.34,8.34,0,0,0,303.2,155.7a9.083,9.083,0,0,0-1.166,2.823,11.01,11.01,0,0,0-.43,3.437,13.334,13.334,0,0,0,1.043,5.585,6.588,6.588,0,0,0,2.823,3.191,8.554,8.554,0,0,0,3.621.921h.675a11.088,11.088,0,0,0,1.718-.368,8.2,8.2,0,0,0,1.964-.8,5.609,5.609,0,0,0,1.473-1.227,7.662,7.662,0,0,0,1.227-1.964l.245-.123a.38.38,0,0,1,.245.123v.43c-.43,1.841-.8,2.946-.921,3.621a3.126,3.126,0,0,0-.675.245,14.974,14.974,0,0,1-4.909.675,14.347,14.347,0,0,1-3.743-.368,20.226,20.226,0,0,1-2.762-1.043,6.666,6.666,0,0,1-2.516-1.964,12.662,12.662,0,0,1-1.841-2.946,11.638,11.638,0,0,1-.675-3.866,12.379,12.379,0,0,1,.552-3.559,11.048,11.048,0,0,1,1.718-3.068,9.876,9.876,0,0,1,6.075-4.112,14.886,14.886,0,0,1,3.621-.245,11.685,11.685,0,0,1,3.314.43c.736.614,1.411.859,1.78,1.227" transform="translate(-115.354 -58.372)" fill="#003764"></path><path d="M331.8,162.349a9.839,9.839,0,0,1,.368-2.823,16.757,16.757,0,0,1,1.227-2.762,6.833,6.833,0,0,1,2.148-2.393,12.023,12.023,0,0,1,3.559-1.718,12.543,12.543,0,0,1,4.112-.552,10.84,10.84,0,0,1,3.191.43,11.876,11.876,0,0,1,2.823,1.227,11.646,11.646,0,0,1,2.639,2.393,11.8,11.8,0,0,1,1.35,2.393,9.837,9.837,0,0,1,.552,3.559,11.164,11.164,0,0,1-.43,3.437,11.466,11.466,0,0,1-1.35,2.762,11.977,11.977,0,0,1-2.516,2.393,10.186,10.186,0,0,1-2.946,1.473,13.083,13.083,0,0,1-3.866.552,14.258,14.258,0,0,1-3.743-.43,10.663,10.663,0,0,1-2.762-1.166,12.851,12.851,0,0,1-2.271-2.025,8.426,8.426,0,0,1-1.718-3.068,33.984,33.984,0,0,1-.368-3.682m10.924,9.819a10.678,10.678,0,0,0,2.762-.368A6.882,6.882,0,0,0,348,170.572a8.784,8.784,0,0,0,1.718-1.964,9.381,9.381,0,0,0,1.043-2.823,16.359,16.359,0,0,0,.368-3.437,14.207,14.207,0,0,0-.675-4.234,9.107,9.107,0,0,0-1.6-2.823,7.822,7.822,0,0,0-2.639-1.964,8.642,8.642,0,0,0-3.314-.675,8.754,8.754,0,0,0-2.823.43,6.622,6.622,0,0,0-2.271,1.227,6.15,6.15,0,0,0-1.6,2.025,17.3,17.3,0,0,0-1.166,2.946,12.3,12.3,0,0,0-.368,2.823,13.31,13.31,0,0,0,.368,2.946,9.01,9.01,0,0,0,1.043,2.823,9.447,9.447,0,0,0,1.718,2.148,7.253,7.253,0,0,0,2.271,1.473,6.016,6.016,0,0,0,2.639.675" transform="translate(-128.18 -58.759)" fill="#003764"></path><path d="M370.761,172.729c0-.123,0-.368.123-.43a10.91,10.91,0,0,1,2.393-.43,1.264,1.264,0,0,0,1.043-.368,5.973,5.973,0,0,0,.245-1.473l.123-4.234V154.2a.662.662,0,0,0-.123-.43,1.51,1.51,0,0,0-.675-.245c-.245,0-1.043-.245-2.516-.43V152.6h1.043l2.393.123h3.253l1.227-.123h1.841a.825.825,0,0,1-.123.552,11.981,11.981,0,0,0-1.6.123,3.458,3.458,0,0,0-1.718.245c-.245.123-.368.552-.368,1.227V171.5c0,.368,0,.43.123.552h3.314l2.762-.123a3.757,3.757,0,0,0,1.473-.245,4.67,4.67,0,0,0,1.473-1.043,5.954,5.954,0,0,0,1.043-1.166c0-.123.123-.245.245-.368a7.348,7.348,0,0,0,.8-1.6h.552c-.123.368-.123.675-.245,1.043a34.507,34.507,0,0,0-.675,3.621c0,.245,0,.43-.123.552l-5.953-.245c-5.032,0-8.1,0-9.021.123H370.7v.123Z" transform="translate(-143.208 -58.952)" fill="#003764"></path><path d="M400.245,171.32a.451.451,0,0,1,.368-.123h.736a7.591,7.591,0,0,0,1.473-.245,2.576,2.576,0,0,0,.921-1.043,37.689,37.689,0,0,0,1.841-4.541,6.831,6.831,0,0,0,.552-1.718c.245-.675.552-1.227.8-1.964l1.473-4.112c.245-.675.8-2.148,1.718-4.48.245-.552.43-1.35.8-2.393h.982c.43.921.8,1.841,1.166,2.823.245.552.43,1.35.921,2.393l2.393,6.505,1.227,3.559c.675,2.025,1.166,3.191,1.35,3.621a6.932,6.932,0,0,0,.552.921s.245.123.552.245c.368.123.552.123.675.245a6.577,6.577,0,0,1,1.043.368.428.428,0,0,0,.123.245v.245h-8.162a.451.451,0,0,1-.368-.123c0-.123,0-.368.123-.43a.451.451,0,0,1,.368-.123l1.718-.123a2.373,2.373,0,0,0,1.043-.245.88.88,0,0,0,.123-.43,5.128,5.128,0,0,0-.43-1.473,5.5,5.5,0,0,1-.43-1.473c-.123-.43-.675-2.025-1.718-4.664a3.975,3.975,0,0,0-1.166-.123h-4.48a3.776,3.776,0,0,0-1.166.123,5.029,5.029,0,0,0-.245.675l-1.35,4.357a25.039,25.039,0,0,0-.921,2.762.662.662,0,0,0,.123.43,9.482,9.482,0,0,0,.921.245l2.148.245.245.245v.245h-1.166a26.231,26.231,0,0,1-2.946-.123H400v-.123c.123-.245.245-.245.245-.43m7.548-9.389a37.559,37.559,0,0,0,3.866.123,11.916,11.916,0,0,0,2.148-.123c-.123-.43-.245-.8-.368-1.166-.675-1.841-1.043-2.823-1.166-3.068l-1.473-3.621-.123-.245a6.251,6.251,0,0,0-.675,1.6c-.675,1.6-1.166,2.946-1.473,3.866a9.745,9.745,0,0,1-.43,1.227,7.833,7.833,0,0,0-.245.8,1.893,1.893,0,0,0-.061.614" transform="translate(-154.527 -58.218)" fill="#003764"></path><path d="M449.476,152.589a7.129,7.129,0,0,1,.123,1.227l-.123,1.35a2.586,2.586,0,0,1-.123,1.166.429.429,0,0,0-.245.123h-.123a5.872,5.872,0,0,0-1.718-3.191,4.544,4.544,0,0,0-2.946-1.043,4.314,4.314,0,0,0-2.946,1.043,3.016,3.016,0,0,0-1.166,2.393,2.617,2.617,0,0,0,.8,1.841,23.387,23.387,0,0,0,4.112,2.516,37.468,37.468,0,0,1,3.621,2.148,5.5,5.5,0,0,1,1.6,1.964,4.925,4.925,0,0,1,.552,2.393,6.617,6.617,0,0,1-.921,3.191,5.357,5.357,0,0,1-2.393,2.271,9.787,9.787,0,0,1-3.866.8,13.73,13.73,0,0,1-4.112-.675c-.8-.245-1.227-.43-1.35-.675a.914.914,0,0,1-.245-.552v-.43c.123-1.227.245-2.271.245-3.068a6.67,6.67,0,0,1,.123-.921c0-.123.123-.123.245-.123s.123,0,.245.123a.451.451,0,0,1,.123.368,5.2,5.2,0,0,0,1.841,3.437,4.908,4.908,0,0,0,3.621,1.473,5.624,5.624,0,0,0,2.271-.552,3.706,3.706,0,0,0,1.6-1.473,3.807,3.807,0,0,0,.552-1.964,3.688,3.688,0,0,0-.921-2.271,15.664,15.664,0,0,0-3.621-2.516,29.27,29.27,0,0,1-3.559-2.025,6.1,6.1,0,0,1-1.964-2.271,3.973,3.973,0,0,1-.43-2.148,4.709,4.709,0,0,1,1.718-3.743,6.761,6.761,0,0,1,4.664-1.473,9.119,9.119,0,0,1,2.762.368,6.5,6.5,0,0,1,1.964.921" transform="translate(-169.207 -58.45)" fill="#003764"></path><path d="M488.69,151.959a5.114,5.114,0,0,1,.245,1.6c.123,1.043.245,1.964.245,2.516a.825.825,0,0,1-.123.552h-.123l-1.166-.123h-.245a9.269,9.269,0,0,0-1.35-2.823,3.859,3.859,0,0,0-2.823-1.227,3.229,3.229,0,0,0-2.393.8,2.843,2.843,0,0,0-.921,2.025,3.068,3.068,0,0,0,.921,1.964,10.308,10.308,0,0,0,3.743,1.841,14.679,14.679,0,0,1,2.271.921,7.189,7.189,0,0,1,2.025,1.35,4.05,4.05,0,0,1,1.227,1.964,5.847,5.847,0,0,1,.368,2.271A6.386,6.386,0,0,1,489.119,170a12.3,12.3,0,0,1-1.473,1.166,9.867,9.867,0,0,1-2.025.921,8.811,8.811,0,0,1-2.762.245,12.191,12.191,0,0,1-2.639-.368l-1.964-.552a2.67,2.67,0,0,1-1.043-.368.538.538,0,0,1-.123-.368v-.245c0-.123,0-.8-.123-2.148v-2.025h1.473a8.455,8.455,0,0,0,1.043,2.148,3.611,3.611,0,0,0,1.043,1.227,6.014,6.014,0,0,0,1.35.8,4.484,4.484,0,0,0,1.841.368,5.44,5.44,0,0,0,1.841-.368,3.5,3.5,0,0,0,1.6-1.166,2.982,2.982,0,0,0,.552-1.841,2.747,2.747,0,0,0-1.166-2.148,11.61,11.61,0,0,0-3.559-1.6,12.829,12.829,0,0,1-3.989-1.841,5.928,5.928,0,0,1-1.718-2.148,6.016,6.016,0,0,1-.675-2.639,5.331,5.331,0,0,1,1.841-4.234,7.294,7.294,0,0,1,5.278-1.718c.43,0,1.227.123,2.271.245a6.928,6.928,0,0,1,2.7.614" transform="translate(-184.118 -58.372)" fill="#003764"></path><path d="M503.8,161.41a10.383,10.383,0,0,1,2.393-6.505,8.31,8.31,0,0,1,2.516-2.025,16.707,16.707,0,0,1,3.068-1.35,14.867,14.867,0,0,1,3.559-.43,12.817,12.817,0,0,1,5.707,1.227,9.834,9.834,0,0,1,3.743,3.314,10.157,10.157,0,0,1,1.841,5.707,10.968,10.968,0,0,1-3.068,7.671c-2.025,2.148-4.787,3.191-8.469,3.191a15.9,15.9,0,0,1-2.516-.245c-.552-.123-1.166-.245-1.6-.368-.8-.245-1.227-.43-1.35-.43a15.349,15.349,0,0,1-2.762-2.025,12.279,12.279,0,0,1-1.718-2.271,14.8,14.8,0,0,1-.921-2.639,6.517,6.517,0,0,1-.43-2.823m10.8-8.776a4.378,4.378,0,0,0-2.393.675,7.333,7.333,0,0,0-1.6,1.35,8.784,8.784,0,0,0-1.227,2.823,16.418,16.418,0,0,0-.368,3.743,7.9,7.9,0,0,0,.123,1.964,1.717,1.717,0,0,0,.123.675,11.087,11.087,0,0,0,.368,1.718c.43,1.35.8,2.148.921,2.516a10.37,10.37,0,0,0,1.35,1.6,8.717,8.717,0,0,0,1.35.8,4.484,4.484,0,0,0,1.841.368,6.483,6.483,0,0,0,3.191-.8,5.972,5.972,0,0,0,2.393-2.762,12.483,12.483,0,0,0,.921-5.032c0-.8-.123-1.964-.245-3.437l-.123-.368a4.584,4.584,0,0,1-.123-.675,6.963,6.963,0,0,0-2.271-3.989,8.106,8.106,0,0,0-4.234-1.166" transform="translate(-194.626 -58.372)" fill="#003764"></path><path d="M563.442,151.682a28.383,28.383,0,0,1,.8,2.762,6.071,6.071,0,0,1,.368,2.148h-1.473a9.647,9.647,0,0,0-3.068-3.068,7.723,7.723,0,0,0-3.621-.921,4.968,4.968,0,0,0-3.989,1.964,11.356,11.356,0,0,0-2.025,7.18,12.554,12.554,0,0,0,.368,3.743,8.783,8.783,0,0,0,1.473,2.946,4.682,4.682,0,0,0,1.718,1.35,7.12,7.12,0,0,0,2.946.675,6.036,6.036,0,0,0,3.314-1.043,13.957,13.957,0,0,0,3.068-3.191,5.277,5.277,0,0,1,1.473-.123,4.829,4.829,0,0,1-.245,1.227c0,.123-.123.8-.368,1.964l-.123.43-.245.675a8.3,8.3,0,0,1-2.762,1.166,21.768,21.768,0,0,1-4.357.368,17.244,17.244,0,0,1-3.621-.368,7.074,7.074,0,0,1-2.946-1.166,10.424,10.424,0,0,1-2.823-2.516,9.583,9.583,0,0,1-1.473-2.823,10.488,10.488,0,0,1-.43-3.559,10.5,10.5,0,0,1,10.924-10.8,33.579,33.579,0,0,1,3.621.245c1.411.245,2.455.491,3.5.736" transform="translate(-210.697 -58.218)" fill="#003764"></path><path d="M580.9,172.252v-1.166a6.63,6.63,0,0,1,1.043-.245,4.349,4.349,0,0,0,1.473-.552,2.326,2.326,0,0,0,.245-1.35v-6.26c.123-2.025.123-3.191.123-3.191v-2.823l-.123-1.841v-.675a.662.662,0,0,0-.123-.43,4.414,4.414,0,0,0-2.025-.368h-.552V152l4.541.245h1.043c.552,0,1.6,0,2.946-.123a14.644,14.644,0,0,0,1.473-.123v1.1a8.408,8.408,0,0,1-1.473.43,3.5,3.5,0,0,0-1.35.43,3.062,3.062,0,0,0-.123,1.166v9.389l-.123,2.148.123,3.191v.552a.451.451,0,0,0,.123.368,10.459,10.459,0,0,0,1.718.245,3.582,3.582,0,0,1,.921.123c0,.368.123.552.123.8v.552h-1.35c-.123,0-.8-.123-2.025-.245h-2.762a19.193,19.193,0,0,0-2.393.123,8.77,8.77,0,0,0-1.473-.123" transform="translate(-224.411 -58.72)" fill="#003764"></path><path d="M598.9,171.9v-1.043a6.633,6.633,0,0,1,1.043-.245,7.628,7.628,0,0,0,1.473-.43c.245-.123.368-.43.675-.921l3.191-8.346,3.743-9.819h1.718l.123.245,2.762,6.505c.552,1.35,1.166,2.762,1.718,3.989.43,1.227.921,2.393,1.227,3.191.245.43.43,1.227.921,2.148a13.4,13.4,0,0,0,.921,2.025c.245.43.368.675.43.8a3.5,3.5,0,0,0,.921.368,5.533,5.533,0,0,1,1.35.368c0,.368.123.552.123.8v.368a20.833,20.833,0,0,1-2.639-.123,19.984,19.984,0,0,0-2.516-.123h-1.841l-2.639.123h-.8v-1.043l1.718-.368a1.9,1.9,0,0,0,.921-.368.451.451,0,0,0,.123-.368.662.662,0,0,0-.123-.43l-.552-1.6-1.227-3.068h-6.076c-.245.43-.675,1.718-1.35,3.621a3.369,3.369,0,0,0-.368,1.166.778.778,0,0,0,.245.552,2.173,2.173,0,0,0,1.35.43c.123,0,.43.123,1.166.245v1.166c-.675,0-2.148-.123-4.664-.245l-.675.123a14.414,14.414,0,0,1-2.148.245Zm7.426-8.9h4.725c-.368-.921-.675-2.025-1.227-3.314a28.838,28.838,0,0,0-1.227-2.823Z" transform="translate(-231.365 -58.372)" fill="#003764"></path><path d="M636.3,172.252v-1.166a6.628,6.628,0,0,1,1.043-.245,4.349,4.349,0,0,0,1.473-.552,2.327,2.327,0,0,0,.245-1.35v-6.26c.123-2.025.123-3.191.123-3.191v-2.823l-.123-1.841v-.675a.662.662,0,0,0-.123-.43,4.413,4.413,0,0,0-2.025-.368h-.552V152l4.541.245h1.043c.552,0,1.6,0,2.946-.123a14.649,14.649,0,0,0,1.473-.123v1.1a8.41,8.41,0,0,1-1.473.43,4.994,4.994,0,0,0-1.35.43,3.062,3.062,0,0,0-.123,1.166v9.389l-.123,2.148.123,3.191v.552a.451.451,0,0,0,.123.368,10.458,10.458,0,0,0,1.718.245,3.582,3.582,0,0,1,.921.123c0,.368.123.552.123.8v.552h-1.35c-.123,0-.8-.123-2.025-.245h-2.762a19.193,19.193,0,0,0-2.393.123,8.769,8.769,0,0,0-1.473-.123" transform="translate(-245.813 -58.72)" fill="#003764"></path><path d="M669.19,151.959a5.114,5.114,0,0,1,.245,1.6c.123,1.043.245,1.964.245,2.516a.825.825,0,0,1-.123.552h-.123l-1.166-.123h-.245a9.269,9.269,0,0,0-1.35-2.823,3.858,3.858,0,0,0-2.823-1.227,3.229,3.229,0,0,0-2.393.8,2.843,2.843,0,0,0-.921,2.025,3.068,3.068,0,0,0,.921,1.964,10.308,10.308,0,0,0,3.743,1.841,14.679,14.679,0,0,1,2.271.921,7.189,7.189,0,0,1,2.025,1.35,4.049,4.049,0,0,1,1.227,1.964,5.847,5.847,0,0,1,.368,2.271A6.386,6.386,0,0,1,669.619,170a12.3,12.3,0,0,1-1.473,1.166,9.867,9.867,0,0,1-2.025.921,8.811,8.811,0,0,1-2.762.245,12.191,12.191,0,0,1-2.639-.368l-1.964-.552a2.67,2.67,0,0,1-1.043-.368.538.538,0,0,1-.123-.368v-.245c0-.123,0-.8-.123-2.148v-2.025h1.473a8.457,8.457,0,0,0,1.043,2.148,3.611,3.611,0,0,0,1.043,1.227,6.014,6.014,0,0,0,1.35.8,4.1,4.1,0,0,0,1.841.368,5.44,5.44,0,0,0,1.841-.368,3.5,3.5,0,0,0,1.6-1.166,2.84,2.84,0,0,0,.552-1.841,2.747,2.747,0,0,0-1.166-2.148,11.611,11.611,0,0,0-3.559-1.6,12.829,12.829,0,0,1-3.989-1.841,5.928,5.928,0,0,1-1.718-2.148,6.015,6.015,0,0,1-.675-2.639,5.332,5.332,0,0,1,1.841-4.234,7.294,7.294,0,0,1,5.278-1.718c.43,0,1.227.123,2.271.245a7.452,7.452,0,0,1,2.7.614" transform="translate(-253.849 -58.372)" fill="#003764"></path></g></svg>